<svg xmlns="http://www.w3.org/2000/svg" xmlns:xlink="http://www.w3.org/1999/xlink">
  <defs>
     <symbol width="12" height="12" xmlns="http://www.w3.org/2000/svg" id="star-empty">
        <path d="M6 0 3.9 3.9 0 4.644 2.7 7.5 2.1 12 6 9.9 9.9 12l-.6-4.5L12 4.644 8.1 3.9z" fill="#D1D1D1" fill-rule="evenodd"/>
    </symbol>
    <symbol width="12" height="12" xmlns="http://www.w3.org/2000/svg"  id="star-half-filled">
      <g fill="none" fill-rule="evenodd">
          <path fill="#D1D1D1" d="M6 0 3.9 3.9 0 4.644 2.7 7.5 2.1 12 6 9.9 9.9 12l-.6-4.5L12 4.644 8.1 3.9z"/>
          <path fill="#000" d="M6 0 3.9 3.9 0 4.644 2.7 7.5 2.1 12 6 9.9z"/>
      </g>
    </symbol>
    <symbol width="12" height="12" xmlns="http://www.w3.org/2000/svg" id="star-filled">
      <path d="M6 0 3.9 3.9 0 4.644 2.7 7.5 2.1 12 6 9.9 9.9 12l-.6-4.5L12 4.644 8.1 3.9z" fill="#000" fill-rule="evenodd"/>
    </symbol>
  </defs>
</svg>